# xmcd
#
# Track frame offsets:
#	225
#	12863
#	29012
#	42877
#	60835
#	73295
#	88523
#	105687
#	121627
#	135653
#
# Disc length: 1973 seconds
#
# Revision: 1
# Processed by: cddbd v1.4PL0 Copyright (c) Steve Scherf et al.
# Submitted via: EasyCDDAExtractor 5.0.6
#
DISCID=7e07b20a
DTITLE=Nelson Ned - Romanticas de America
DYEAR=1993
DGENRE=Bolero
TTITLE0=Una Aventura Mas
TTITLE1=Fallaste Corazon
TTITLE2=Cuando Tu Me Quieras
TTITLE3=Tu Me Acostumbraste
TTITLE4=Maria Elena
TTITLE5=Encadenados
TTITLE6=Perfidia
TTITLE7=Historia De Un Amor
TTITLE8=El Reloj
TTITLE9=Angustia
EXTD=
EXTT0=
EXTT1=
EXTT2=
EXTT3=
EXTT4=
EXTT5=
EXTT6=
EXTT7=
EXTT8=
EXTT9=
PLAYORDER=
